<svg width="85" height="105" viewBox="0 0 85 105" fill="none" xmlns="http://www.w3.org/2000/svg">
<path d="M42.5062 51.3505L26.2334 41.8934V65.8462L42.5062 75.2257L84.3506 51.0404V27.0876L42.5062 51.3505Z" fill="#FFA000"/>
<path d="M42.5062 23.9094L61.2587 34.7618L81.9484 22.8242L42.5062 0.0341797L3.06396 22.8242L23.5987 34.8394L42.5062 23.9094Z" fill="#FFA000"/>
<path d="M21.2741 68.6368V39.0253L0.584351 27.0876V80.5744L42.5062 104.837L84.3507 80.5744V56.6991L42.5062 80.8845L21.2741 68.6368Z" fill="#FFA000"/>
<g opacity="0.25">
<path d="M42.5062 51.3504L26.2334 41.8933V65.8461L42.5062 75.2257V51.3504Z" fill="black"/>
<path d="M42.5062 23.9094V0.0341797L3.06396 22.8242L23.5987 34.8394L42.5062 23.9094Z" fill="black"/>
<path d="M21.2741 68.6368V39.0253L0.584351 27.0876V80.5744L42.5062 104.837V80.8845L21.2741 68.6368Z" fill="black"/>
</g>
</svg>
